<?xml version="1.0" encoding="utf-8"?>
<!-- Generator: Adobe Illustrator 25.0.1, SVG Export Plug-In . SVG Version: 6.00 Build 0)  -->
<svg version="1.1" id="Layer_1" xmlns="http://www.w3.org/2000/svg" xmlns:xlink="http://www.w3.org/1999/xlink" x="0px" y="0px"
	 viewBox="0 0 72.7 47.1" style="enable-background:new 0 0 72.7 47.1;" xml:space="preserve">
<style type="text/css">
	.st0{enable-background:new    ;}
	.st1{fill:#FFFFFF;}
</style>
<path d="M3.3,33.6c-0.8,0.1-1,0.3-1.4,0.3c-0.6,0-2.4-0.7-2.4-0.9c0,0,0.1-0.1,0.2-0.1c0.1,0,0.3,0,0.4,0C0.8,33,1.9,33,3.1,33
	c1.4,0,2.9,0,4-0.1c0.4,0,0.3-0.1,0.8-0.1s1.4,0.1,1.4,0.3c0,0.1-0.3,0.3-0.4,0.6c-2.2,3-4.6,5.2-9.8,7.4c-0.5,0.2-0.8,0.2-0.9,0.2
	c0,0-0.1,0-0.1,0c0-0.1,0.3-0.3,0.8-0.5c4.2-2.2,7.1-4.9,8.4-7.3L3.3,33.6z M4.7,42.1c-0.1-0.4-0.5-0.5-1.3-0.9
	c-0.3-0.1-0.5-0.2-0.5-0.2c0-0.1,0.2-0.2,0.7-0.2c1.1,0,2.3,0.2,2.8,0.4l6.3-0.1c0.5,0,0.6-0.2,1.1-0.2c0.4,0,1.3,0.1,1.3,0.3
	c0,0.1-0.2,0.3-0.3,0.5c-0.4,1.3-0.9,3.1-1.1,3.6c0.7,0,1.1,0.2,1.1,0.4s-0.4,0.3-1.1,0.3H6.2C6,46.6,5.8,47,5.5,47
	c-0.2,0-0.4-0.3-0.5-1L4.7,42.1z M6.5,41.5c0,0-0.3,0.1-0.3,0.3l0,3.7l5.2,0c0.8,0,0.7-0.1,1.4-0.2l0.3-3.8L6.5,41.5z M13.3,32.1
	c0-0.3-0.7-0.7-1.9-1.1c-0.4-0.1-0.6-0.2-0.6-0.3c0-0.1,0.3-0.2,0.8-0.2c0.1,0,3.2,0.3,3.2,0.9c0,0.1-0.1,0.3-0.1,0.5V37
	c0,0.8-0.1,1.8-0.4,2.5c-0.2,0.4-0.4,0.6-0.6,0.6s-0.4-0.2-0.4-0.8L13.3,32.1z"/>
<path d="M21.8,30c-0.2-0.2-0.9-0.5-2-0.8c-0.3-0.1-0.6-0.2-0.6-0.3c0-0.1,0.2-0.2,1-0.3c1.2,0.1,2.9,0.2,3.7,0.4
	c2.4,0,4.5,0,7.2-0.1c0.9,0,0.3-0.2,2.1-0.2c1.1,0,1.4,0.1,1.4,0.3c0,0.2-0.7,0.6-0.8,1l-1.3,5.8c0.9,0.2,1.5,0.4,1.5,0.6
	c0,0.3-1.1,0.3-1.8,0.3c-2,0-6.5,0.1-8.1,0.2c-0.1,0.3-0.4,1.3-1,1.3c-0.3,0-0.4-0.6-0.5-2.1L21.8,30z M24.5,29.6
	c-0.3,0.1-0.5,0-0.6,0.5l0.3,6c5.2,0,5.7,0,7.2-0.3c0.2-1.2,0.2-4.2,0.3-6.3L24.5,29.6z M28.4,41.7c-0.1-0.5-0.8-0.7-2.4-1.1
	c-0.4,0-0.6-0.2-0.6-0.3s0.2-0.2,1-0.3c1.5,0,2.8,0.1,3.4,0.2c0.5,0.1,0.7,0.2,0.7,0.4c0,0.2-0.1,0.4-0.1,0.7c0,1.1,0,2.4,0,3.3
	c0,0.5,0.4,0.8,1.5,0.8l6.6,0c2.4-0.1,1.2-0.7,4.1-0.7c1,0,2.3,0.1,2.3,0.8c0,0.3-0.3,0.5-0.9,0.5H31.8c-2.1,0-3.3-0.4-3.4-1.7
	L28.4,41.7z M40.2,27c-0.1-0.3-1.3-1-2.7-1.4c-0.5-0.1-0.8-0.3-0.8-0.4c0-0.1,0.4-0.2,1.1-0.2c1.5,0.1,2.7,0.4,3.3,0.6
	c0.9,0.2,1.1,0.4,1.1,0.6c0,0.2-0.1,0.4-0.1,0.7l0,10.3c0,1-0.1,2.4-0.5,3.4c-0.3,0.6-0.6,0.9-0.9,0.9c-0.3,0-0.5-0.3-0.5-1.1
	L40.2,27L40.2,27z"/>
<rect y="0" width="52.2" height="24"/>
<path d="M49.1,32.8c3.2-2.5,6.9-5.9,8.9-10.7c0-0.1,0.2-0.6,0.2-0.7c0-0.3-0.5-0.9-1.7-1.7C56.1,19.4,56,19.2,56,19
	c0-0.2,0.3-0.3,0.7-0.3c0.2,0,0.5,0.1,0.8,0.1c0.6,0.2,3.5,1.5,3.5,2.3c0,0.5-1.3,2.6-2.2,4c0.3,0.6,1.5,2.2,2.3,2.8
	c0.9,0.8,1.2-0.1,2.8,3.3c0.2,0.3,0.2,0.6,0.2,0.8c0,0.5-0.3,0.8-0.7,0.8c-0.3,0-0.7-0.2-0.9-0.6c-1.5-2-3.3-4.5-4.5-6.3
	c-3.2,4.2-8.8,7.6-9.3,7.6c-0.1,0-0.1,0-0.1-0.1C48.6,33.3,48.7,33,49.1,32.8z M70.1,36.8c-2,0.1-7,0.3-11,0.4
	c-1.2,0.1-1.4,0.5-2.1,0.5c-0.8,0-3.2-1.2-3.2-1.6c0-0.1,0.1-0.2,0.4-0.2c0.1,0,0.2,0,0.4,0c1.2,0.2,3,0.3,4.9,0.3
	c3.1,0,6.7-0.2,9.2-0.3c0.8,0,0.7-0.4,1.7-0.4c0.1,0,0.3,0,0.5,0c1.2,0.1,1.5,0.3,1.5,0.5c0,0.3-0.3,0.6-0.3,1c0,4.5,0,6.4-0.5,8.4
	c-0.2,0.9-0.7,1.5-1,1.5c-0.3,0-0.5-0.4-0.5-1.2L70.1,36.8L70.1,36.8z M70.6,26C69,26,68,26.2,67.1,26.2c-0.8,0.1-1,0.4-1.6,0.4
	c-0.7,0-2.6-0.8-2.6-1.2c0-0.1,0.2-0.2,0.6-0.2c0.2,0,1.3,0,1.6,0c1.6,0,4-0.1,5.5-0.3v-5.4c-0.1-0.7-1.6-1.5-2.8-2
	C67.3,17.4,67,17.2,67,17c0-0.2,0.3-0.3,1.1-0.4c0.3,0,4.6,0.8,4.6,1.6c0,0.2-0.1,0.4-0.1,0.8l0,10.5c0,1.6-0.2,3.4-0.8,4.5
	c-0.2,0.3-0.4,0.5-0.6,0.5c-0.3,0-0.6-0.6-0.6-2.2C70.6,32.3,70.6,26,70.6,26z"/>
<g class="st0">
	<path class="st1" d="M11.2,8.4c0.1,0,0.8-0.1,0.9-0.1c0.5,0,0.7,0.1,0.7,0.2c0,0.1-0.2,0.3-0.4,0.4c-0.9,2.7-2.4,4.7-4.7,6.3
		c-0.2,0.1-0.3,0.2-0.3,0.2c0,0,0,0,0,0c0-0.1,0.1-0.2,0.2-0.3c1.9-1.7,3.5-4.2,4-6.4c-0.4,0-1.3,0.1-2,0.1C9.3,8.9,9.3,9,9.1,9
		C8.9,9,7.9,8.6,7.9,8.4c0-0.1,0.1-0.1,0.2-0.1c0.1,0,0.1,0,0.2,0c0.5,0.1,1,0.1,1.5,0.1C10.1,8.5,10.6,8.4,11.2,8.4z M14.2,7.4
		c0-0.3-0.4-0.5-1-0.7C13.1,6.5,13,6.5,13,6.4c0-0.1,0.1-0.1,0.4-0.1c1.5,0.2,1.7,0.4,1.7,0.6c0,0.1,0,0.2,0,0.3v4.5l1.7,0V6.8
		c0-0.3-0.5-0.6-1.1-0.9c-0.1-0.1-0.3-0.2-0.3-0.2s0.1-0.1,0.5-0.1c1.5,0.4,1.7,0.5,1.7,0.7c0,0.1,0,0.2,0,0.3l-0.1,9.9
		c-0.1,0.8-0.3,1.3-0.5,1.3c-0.1,0-0.2-0.2-0.2-0.7V12L15,12L15,15.8c-0.1,0.6-0.3,1-0.5,1c-0.1,0-0.3-0.2-0.3-0.7V7.4z"/>
	<path class="st1" d="M22.7,11.5c-0.1,0.5-0.3,0.7-0.5,0.7c-0.1,0-0.2-0.2-0.3-0.6c0-0.1,0-2.6-0.1-3.4c0-0.2,0-0.4-0.9-0.6
		c-0.2,0-0.3-0.1-0.3-0.2c0-0.1,0.1-0.1,0.4-0.2c1.5,0.1,1.7,0.2,1.7,0.4c0,0.1,0,0.1,0,0.2v0.9l3.2-0.1V7.6c0-0.2-0.2-0.3-0.8-0.5
		C25,7,24.8,7,24.8,6.9s0.1-0.1,0.4-0.2c1.3,0.1,1.5,0.2,1.5,0.4c0,0.1,0,0.3,0,0.3c0,1.6,0,2.9-0.1,3.6c-0.1,0.6-0.3,0.9-0.5,0.9
		c-0.1,0-0.2-0.2-0.2-0.6L22.7,11.5z M22.7,9.1v2L26,11v-2L22.7,9.1z M24.1,15.5c0-0.1-0.3-0.2-0.7-0.3c-0.1,0-0.3-0.1-0.3-0.1
		c0,0,0.2-0.2,0.6-0.2c0.6,0,1.2,0.1,1.3,0.2c1.2,0,1.8,0,3.1-0.1c0.3,0,0.4-0.1,0.7-0.1c0-0.2,0.1-0.9,0.1-1.6
		c-0.8,0-2.5,0.1-3.8,0.1c-0.4,0.1-0.4,0.2-0.7,0.2c-0.3,0-1.3-0.4-1.3-0.6c0,0,0.1-0.1,0.2-0.1c0.1,0,0.1,0,0.2,0
		c0.5,0,1.1,0.1,1.8,0.1c1,0,2.3-0.1,3.3-0.1c0.3,0,0.2-0.1,0.5-0.1c0.1,0,0.2,0,0.3,0c0.4,0,0.5,0.1,0.5,0.2c0,0.1-0.1,0.2-0.2,0.4
		c-0.2,0.4-0.4,0.9-0.5,1.4c0.4,0.1,0.5,0.2,0.5,0.3s-0.1,0.2-0.4,0.2c-1,0-2.8,0.1-4.3,0.1c-0.1,0.1-0.2,0.1-0.2,0.2v1.1
		c0,0.2,0.1,0.3,0.3,0.3c0.3,0,0.7,0,1.1,0c0.7,0,1.5,0,2.3,0c0.8-0.1,0.5-0.3,1.4-0.3c0.4,0,1,0,1,0.4c0,0.2-0.2,0.3-0.5,0.3h-5.4
		c-1,0-1.2-0.3-1.2-0.7V15.5z M29,6.6c0-0.1-0.3-0.4-1.2-0.7c-0.2-0.1-0.3-0.1-0.3-0.2c0-0.1,0.2-0.1,0.5-0.2c0.6,0.1,1,0.2,1.4,0.3
		C29.9,5.9,30,6,30,6.2c0,0.1-0.1,0.2-0.1,0.4l0,3.5c0.2,0,0.3,0,0.5,0c0.6-0.1,0.4-0.4,1.3-0.4c0.3,0,0.8,0,0.8,0.4
		c0,0.2-0.1,0.3-0.4,0.3l-2.3,0c0,1.4-0.5,1.8-0.6,1.8c-0.1,0-0.2-0.1-0.2-0.5V6.6z"/>
	<path class="st1" d="M39.1,8C39.3,8,39.3,8,39.6,8c0.7,0,0.8,0.1,0.8,0.2s-0.2,0.3-0.3,0.5c-0.5,0.9-1.3,2-1.8,2.6
		c0.3,0.3,0.9,0.7,1.2,0.9c0.5,0.3,0.7,0.1,1.4,1.1c0.2,0.3,0.3,0.5,0.3,0.7c0,0.2-0.1,0.3-0.2,0.3c-0.1,0-0.3-0.1-0.4-0.2
		c-0.4-0.4-1.1-1.2-2.4-2.5c-1.6,1.7-4.1,3.3-4.5,3.3c0,0-0.1,0-0.1,0c0-0.1,0.1-0.2,0.3-0.3c1.6-1.1,4.1-3.2,5.4-6
		c-0.7,0-2.4,0.1-2.9,0.2c-0.3,0.1-0.4,0.2-0.6,0.2c-0.3,0-1.4-0.5-1.4-0.7c0,0,0.1-0.1,0.2-0.1c0.1,0,0.1,0,0.3,0
		c0.4,0.1,0.9,0.1,1.4,0.1C37.2,8.1,38.7,8.1,39.1,8z M42.4,6.6c0-0.2-0.7-0.5-1.3-0.8c-0.1-0.1-0.2-0.1-0.2-0.2
		c0-0.1,0.2-0.1,0.6-0.2C42,5.6,42.6,5.7,43,5.8c0.3,0.1,0.3,0.2,0.3,0.3c0,0.1,0,0.2,0,0.4v4.8H44c0.6-0.1,0.4-0.3,1.3-0.3
		c0.3,0,0.8,0,0.8,0.4c0,0.2-0.2,0.3-0.5,0.3h-2.3l0,3.8c0,0.8-0.1,1.4-0.3,1.9c-0.1,0.2-0.2,0.2-0.3,0.2c-0.1,0-0.2-0.2-0.2-0.6
		V6.6z"/>
</g>
</svg>
